# xmcd
#
# Track frame offsets:
# 150
# 11231
# 23011
# 35913
# 50768
# 67994
# 85067
# 101004
# 114721
# 129219
# 143946
# 162873
# 180822
# 196887
# 204664
# 221093
# 241156
# 256328
# 270646
#
# Disc length: 3768 seconds
#
#
# Revision: 0
# Processed by: cddbd v1.5.2PL0 Copyright (c) Steve Scherf et al.
# Submitted via: FreeRIP 2.944 
#
DISCID=0c0eb613
DTITLE=Volume 1 - kykNet COUNTRY
DYEAR=1900
DGENRE=Country
TTITLE0=KYKNET COUNTRY - Juanita du plessis
TTITLE1=Dankie - Lance James
TTITLE2=Rainbows and Roses - Bobby Angel
TTITLE3=Tiny Bubbles - Billy Forest
TTITLE4=Lovin" Arms - Cheree"
TTITLE5=Red River Rosie - Clive Bruce
TTITLE6=The Gambler - Alan Ladd
TTITLE7=Down The Mississippi - Barbara Ray
TTITLE8=Can"t stop loving you - Tommy Dell
TTITLE9=Hokaai stop die lorrie - Ray Dylan
TTITLE10=Woman Medley - Pieter Naude"
TTITLE11=Huistoe - Broers
TTITLE12=Outword is nie vir sussies nie - Matt Hurter
TTITLE13=She taught me to yodel - Caroline du Preez
TTITLE14=Tree vir tree(by my) - Karlien  Husselman
TTITLE15=Hy bel jou net as hy dronk is - Jakkie Louw
TTITLE16=Cassanova - Elizma Theron
TTITLE17=Getoor - Fredi Nest
TTITLE18=Green eyed angel - Juanita and Bobby Angel
EXTD=
EXTT0=
EXTT1=
EXTT2=
EXTT3=
EXTT4=
EXTT5=
EXTT6=
EXTT7=
EXTT8=
EXTT9=
EXTT10=
EXTT11=
EXTT12=
EXTT13=
EXTT14=
EXTT15=
EXTT16=
EXTT17=
EXTT18=
PLAYORDER=
